<svg id="visual" viewBox="0 0 960 540" width="960" height="540" xmlns="http://www.w3.org/2000/svg" xmlns:xlink="http://www.w3.org/1999/xlink" version="1.1"><rect x="0" y="0" width="960" height="540" fill="#ffffff"></rect><g transform="translate(954.0500270933417 2.8304020822290568)"><path d="M230.5 -282.6C288.8 -225.8 319.2 -143.7 334.6 -58.7C350 26.4 350.4 114.5 314.3 185.6C278.2 256.8 205.6 311.2 124.5 339.8C43.3 368.4 -46.4 371.2 -119.7 339.8C-193.1 308.4 -250 242.8 -286.7 170C-323.4 97.2 -340 17.2 -329.5 -60.9C-319.1 -138.9 -281.7 -215 -222.3 -271.5C-162.8 -328.1 -81.4 -365 2.4 -367.8C86.1 -370.6 172.3 -339.3 230.5 -282.6" fill="#f56200"></path></g></svg>